# xmcd CD database file
#
# Track frame offsets:
#	150
#	2465
#	10814
#	22644
#	35428
#	49891
#	62331
#	73356
#	82492
#	91073
#	100743
#	111592
#	120747
#	128294
#	137789
#	147620
#
# Disc length: 2179 seconds
#
# Revision: 0
# Processed by: cddbd v1.5.2PL0 Copyright (c) Steve Scherf et al.
# Submitted via: CDex 1.70beta2
#
DISCID=d4088110
DTITLE=Spencer Bohren - Down The Dirt Road Blues
DYEAR=2004
DGENRE=Blues
TTITLE0=Africa
TTITLE1=Slavery Days
TTITLE2=Homemade Banjo
TTITLE3=Birth of the Blues
TTITLE4=Delta Slide
TTITLE5=Jug Band Music
TTITLE6=Take to the Hills
TTITLE7=Blue Yodel
TTITLE8=Back to the Delta
TTITLE9=Nashville Bound
TTITLE10=North to Chicago
TTITLE11=Urban Shuffle
TTITLE12=Rock 'n' Roll
TTITLE13=English Invasion
TTITLE14=Folk Boom
TTITLE15=Full Circle
EXTD=YEAR: 2004
EXTT0=
EXTT1=
EXTT2=
EXTT3=
EXTT4=
EXTT5=
EXTT6=
EXTT7=
EXTT8=
EXTT9=
EXTT10=
EXTT11=
EXTT12=
EXTT13=
EXTT14=
EXTT15=
PLAYORDER=
